<?xml version="1.0" encoding="UTF-8" standalone="no"?><svg width="203px" height="49px" viewBox="0 0 203 49" version="1.1" xmlns="http://www.w3.org/2000/svg"><defs><linearGradient x1="50%" y1="0%" x2="0%" y2="100%" id="linearGradient-1"><stop stop-color="rgb(138, 221, 109)" offset="0%"></stop><stop stop-color="rgb(96, 176, 68)" offset="100%"></stop></linearGradient><filter x="-50%" y="-50%" width="200%" height="200%" filterUnits="objectBoundingBox" id="filter-2"><feOffset dx="0" dy="-1" in="SourceAlpha" result="shadowOffsetOuter1"></feOffset><feGaussianBlur stdDeviation="0" in="shadowOffsetOuter1" result="shadowBlurOuter1"></feGaussianBlur><feColorMatrix values="0 0 0 0 0   0 0 0 0 0   0 0 0 0 0  0 0 0 0.35 0" in="shadowBlurOuter1" type="matrix" result="shadowMatrixOuter1"></feColorMatrix><feMerge><feMergeNode in="shadowMatrixOuter1"></feMergeNode><feMergeNode in="SourceGraphic"></feMergeNode></feMerge></filter></defs><g id="Page-1" stroke="none" stroke-width="1" fill="none" fill-rule="evenodd"><g id="support" transform="translate(1.000000, 1.000000)"><g id="gittip"><g id="layer1" transform="translate(-0.500000, 0.125000)"><rect id="rect2987" stroke="#5CA941" fill="url(#linearGradient-1)" x="0" y="0" width="202" height="48" rx="3"></rect><path d="M26.95513,10.56585 C18.98364,10.56585 12.521,17.02855 12.521,25.00005 C12.521,32.97255 18.98364,39.43415 26.95513,39.43415 C34.92855,39.43415 41.38927,32.97255 41.38927,25.00005 C41.38927,17.02855 34.92855,10.56585 26.95513,10.56585 L26.95513,10.56585 Z M23.05792,19.05805 C23.97771,19.11705 24.76596,19.67325 25.27115,20.26085 C25.57331,20.61115 26.10063,21.00655 27.07542,21.00655 C28.05213,21.00655 28.55444,20.61115 28.85563,20.26085 C29.66394,19.32065 31.20069,18.49215 32.82501,19.56315 C34.73224,20.82085 34.19818,23.09475 33.64295,23.74905 L27.07542,32.65015 L20.50789,23.74905 C19.95265,23.09475 19.39453,20.82085 21.30176,19.56315 C21.91089,19.16155 22.50604,19.02265 23.05792,19.05805 L23.05792,19.05805 Z" id="path46" fill="#FFFFFF"></path></g></g><text id="Support" fill="white" filter="url(#filter-2)" font-family="Helvetica, arial, freesans, clean, sans-serif" font-size="14px" font-weight="bold"><tspan x="50" y="28" fill="#FFFFFF">Support this project</tspan></text></g></g></svg>
