<svg width="203" height="49" viewBox="0 0 203 49" xmlns="http://www.w3.org/2000/svg"><defs><linearGradient x1="50%" y1="0%" x2="0%" y2="100%" id="a"><stop stop-color="#8ADD6D" offset="0%"/><stop stop-color="#60B044" offset="100%"/></linearGradient><filter x="-50%" y="-50%" width="200%" height="200%" filterUnits="objectBoundingBox" id="b"><feOffset dy="-1" in="SourceAlpha" result="shadowOffsetOuter1"/><feGaussianBlur in="shadowOffsetOuter1" result="shadowBlurOuter1"/><feColorMatrix values="0 0 0 0 0 0 0 0 0 0 0 0 0 0 0 0 0 0 0.35 0" in="shadowBlurOuter1" result="shadowMatrixOuter1"/><feMerge><feMergeNode in="shadowMatrixOuter1"/><feMergeNode in="SourceGraphic"/></feMerge></filter></defs><g fill="none" fill-rule="evenodd"><g transform="translate(.5 1.125)"><rect stroke="#5CA941" fill="url(#a)" width="202" height="48" rx="3"/><path d="M26.955 10.566c-7.971 0-14.434 6.463-14.434 14.434 0 7.973 6.463 14.434 14.434 14.434 7.974 0 14.434-6.461 14.434-14.434 0-7.971-6.46-14.434-14.434-14.434zm-3.897 8.492c.92.059 1.708.615 2.213 1.203.302.35.83.746 1.804.746.977 0 1.48-.396 1.78-.746.809-.94 2.346-1.769 3.97-.698 1.907 1.258 1.373 3.532.818 4.186l-6.568 8.901-6.567-8.9c-.555-.655-1.113-2.93.794-4.187.609-.401 1.204-.54 1.756-.505z" fill="#FFF"/></g><text fill="#fff" filter="url(#b)" font-family="Helvetica, arial, freesans, clean, sans-serif" font-size="14" font-weight="bold" transform="translate(1 1)"><tspan x="50" y="28" fill="#FFF">Support this project</tspan></text></g></svg>