<?xml version="1.0" encoding="ISO-8859-1"?>
<!DOCTYPE svg PUBLIC "-//W3C//DTD SVG 1.1//EN" "http://www.w3.org/Graphics/SVG/1.1/DTD/svg11.dtd">
<svg xmlns="http://www.w3.org/2000/svg" xml:space="preserve" version="1.1" overflow="visible" xmlns:xlink="http://www.w3.org/1999/xlink" viewBox="0 0 88 31">
  <g shape-rendering="geometricPrecision" text-rendering="geometricPrecision" image-rendering="optimizeQuality">
    <g id="Background">
    </g>
    <g id="Guides">
    </g>
    <g id="Foreground">
      <g>
        <polygon points="0,0 88,0 88,31 0,31 0,0" fill="none"/>
        <path d="M44,15.5" fill="none"/>
      </g>
      <g>
        <polygon points="0,0 83,0 83,31 0,31 0,0" fill="#FFCC66"/>
        <path d="M41.5,15.5" fill="#FFCC66"/>
      </g>
      <g>
        <polygon points="0.365,0 36.809,0 36.809,31 0.365,31 0.365,0" fill="#FFFFFF"/>
        <path d="M18.587,15.5" fill="#FFFFFF"/>
      </g>
      <g>
        <polygon points="4.692,2.291 44.697,2.291 44.697,26.898 4.692,26.898 4.692,2.291" fill="none"/>
        <path d="M24.695,14.594" fill="none"/>
      </g>
      <g>
        <g>
          <defs>
            <polygon points="0,30 83,30 83,31 0,31 0,30" id="XMLID_1318_"/>
          </defs>
          <use xlink:href="#XMLID_1318_" fill="#504D4C"/>
          <clipPath id="XMLID_1344_">
            <use xlink:href="#XMLID_1318_"/>
          </clipPath>
          <g clip-path="url(#XMLID_1344_)">
            <g>
              <polygon points="0,0 88,0 88,31 0,31 0,0" fill="none"/>
              <path d="M44,15.5" fill="none"/>
            </g>
            <g>
              <polygon points="0,0 83,0 83,31 0,31 0,0" fill="#4E4B3F"/>
              <path d="M41.5,15.5" fill="#4E4B3F"/>
            </g>
            <g>
              <polygon points="0.365,0 36.809,0 36.809,31 0.365,31 0.365,0" fill="#4F4F4F"/>
              <path d="M18.587,15.5" fill="#4F4F4F"/>
            </g>
          </g>
        </g>
      </g>
      <g>
        <g>
          <defs>
            <polygon points="82,0 83,0 83,31 82,31 82,0" id="XMLID_1320_"/>
          </defs>
          <use xlink:href="#XMLID_1320_" fill="#504D4C"/>
          <clipPath id="XMLID_1345_">
            <use xlink:href="#XMLID_1320_"/>
          </clipPath>
          <g clip-path="url(#XMLID_1345_)">
            <g>
              <polygon points="0,0 88,0 88,31 0,31 0,0" fill="none"/>
              <path d="M44,15.5" fill="none"/>
            </g>
            <g>
              <polygon points="0,0 83,0 83,31 0,31 0,0" fill="#4E4B3F"/>
              <path d="M41.5,15.5" fill="#4E4B3F"/>
            </g>
            <g>
              <g>
                <defs>
                  <polygon points="0,30 83,30 83,31 0,31 0,30" id="XMLID_1322_"/>
                </defs>
                <use xlink:href="#XMLID_1322_" fill="#191919"/>
                <clipPath id="XMLID_1346_">
                  <use xlink:href="#XMLID_1322_"/>
                </clipPath>
                <g clip-path="url(#XMLID_1346_)">
                  <g>
                    <polygon points="0,0 88,0 88,31 0,31 0,0" fill="none"/>
                    <path d="M44,15.5" fill="none"/>
                  </g>
                  <g>
                    <polygon points="0,0 83,0 83,31 0,31 0,0" fill="#191917"/>
                    <path d="M41.5,15.5" fill="#191917"/>
                  </g>
                  <g>
                    <polygon points="0.366,0 36.809,0 36.809,31 0.366,31 0.366,0" fill="#191919"/>
                    <path d="M18.587,15.5" fill="#191919"/>
                  </g>
                </g>
              </g>
            </g>
          </g>
        </g>
      </g>
      <g>
        <polygon points="0,0 1,0 1,31 0,31 0,0" fill="#CCCCCC"/>
        <path d="M0.5,15.5" fill="#CCCCCC"/>
      </g>
      <g>
        <g>
          <defs>
            <polygon points="2.16,29.005 82.16,29.005 82.16,30.005 2.16,30.005 2.16,29.005" id="XMLID_1324_"/>
          </defs>
          <use xlink:href="#XMLID_1324_" fill="#9E9C9C"/>
          <clipPath id="XMLID_1347_">
            <use xlink:href="#XMLID_1324_"/>
          </clipPath>
          <g clip-path="url(#XMLID_1347_)">
            <g>
              <polygon points="0,0 88,0 88,31 0,31 0,0" fill="none"/>
              <path d="M44,15.5" fill="none"/>
            </g>
            <g>
              <polygon points="0,0 83,0 83,31 0,31 0,0" fill="#B39F67"/>
              <path d="M41.5,15.5" fill="#B39F67"/>
            </g>
            <g>
              <polygon points="0.365,0 36.809,0 36.809,31 0.365,31 0.365,0" fill="#B5B5B5"/>
              <path d="M18.587,15.5" fill="#B5B5B5"/>
            </g>
            <g>
              <g>
                <defs>
                  <polygon points="0,30 83,30 83,31 0,31 0,30" id="XMLID_1326_"/>
                </defs>
                <use xlink:href="#XMLID_1326_" fill="#383838"/>
                <clipPath id="XMLID_1348_">
                  <use xlink:href="#XMLID_1326_"/>
                </clipPath>
                <g clip-path="url(#XMLID_1348_)">
                  <g>
                    <polygon points="0,0 88,0 88,31 0,31 0,0" fill="none"/>
                    <path d="M44,15.5" fill="none"/>
                  </g>
                  <g>
                    <polygon points="0,0 83,0 83,31 0,31 0,0" fill="#383530"/>
                    <path d="M41.5,15.5" fill="#383530"/>
                  </g>
                  <g>
                    <polygon points="0.366,0 36.809,0 36.809,31 0.366,31 0.366,0" fill="#383838"/>
                    <path d="M18.587,15.5" fill="#383838"/>
                  </g>
                </g>
              </g>
            </g>
            <g>
              <g>
                <defs>
                  <polygon points="82,0 83,0 83,31 82,31 82,0" id="XMLID_1328_"/>
                </defs>
                <use xlink:href="#XMLID_1328_" fill="#383838"/>
                <clipPath id="XMLID_1349_">
                  <use xlink:href="#XMLID_1328_"/>
                </clipPath>
                <g clip-path="url(#XMLID_1349_)">
                  <g>
                    <polygon points="0,0 88,0 88,31 0,31 0,0" fill="none"/>
                    <path d="M44,15.5" fill="none"/>
                  </g>
                  <g>
                    <polygon points="0,0 83,0 83,31 0,31 0,0" fill="#383530"/>
                    <path d="M41.5,15.5" fill="#383530"/>
                  </g>
                  <g>
                    <g>
                      <defs>
                        <polygon points="0,30 83,30 83,31 0,31 0,30" id="XMLID_1330_"/>
                      </defs>
                      <use xlink:href="#XMLID_1330_" fill="#131313"/>
                      <clipPath id="XMLID_1350_">
                        <use xlink:href="#XMLID_1330_"/>
                      </clipPath>
                      <g clip-path="url(#XMLID_1350_)">
                        <g>
                          <polygon points="0,0 88,0 88,31 0,31 0,0" fill="none"/>
                          <path d="M44,15.5" fill="none"/>
                        </g>
                        <g>
                          <polygon points="0,0 83,0 83,31 0,31 0,0" fill="#131313"/>
                          <path d="M41.5,15.5" fill="#131313"/>
                        </g>
                        <g>
                          <polygon points="0.366,0 36.809,0 36.809,31 0.366,31 0.366,0" fill="#131313"/>
                          <path d="M18.587,15.5" fill="#131313"/>
                        </g>
                      </g>
                    </g>
                  </g>
                </g>
              </g>
            </g>
          </g>
        </g>
      </g>
      <g>
        <g>
          <defs>
            <polygon points="80.806,1 81.806,1 81.806,31 80.806,31 80.806,1" id="XMLID_1332_"/>
          </defs>
          <use xlink:href="#XMLID_1332_" fill="#9E9C9C"/>
          <clipPath id="XMLID_1351_">
            <use xlink:href="#XMLID_1332_"/>
          </clipPath>
          <g clip-path="url(#XMLID_1351_)">
            <g>
              <polygon points="0,0 88,0 88,31 0,31 0,0" fill="none"/>
              <path d="M44,15.5" fill="none"/>
            </g>
            <g>
              <polygon points="0,0 83,0 83,31 0,31 0,0" fill="#B39F67"/>
              <path d="M41.5,15.5" fill="#B39F67"/>
            </g>
            <g>
              <g>
                <defs>
                  <polygon points="0,30 83,30 83,31 0,31 0,30" id="XMLID_1334_"/>
                </defs>
                <use xlink:href="#XMLID_1334_" fill="#383838"/>
                <clipPath id="XMLID_1352_">
                  <use xlink:href="#XMLID_1334_"/>
                </clipPath>
                <g clip-path="url(#XMLID_1352_)">
                  <g>
                    <polygon points="0,0 88,0 88,31 0,31 0,0" fill="none"/>
                    <path d="M44,15.5" fill="none"/>
                  </g>
                  <g>
                    <polygon points="0,0 83,0 83,31 0,31 0,0" fill="#383530"/>
                    <path d="M41.5,15.5" fill="#383530"/>
                  </g>
                  <g>
                    <polygon points="0.366,0 36.809,0 36.809,31 0.366,31 0.366,0" fill="#383838"/>
                    <path d="M18.587,15.5" fill="#383838"/>
                  </g>
                </g>
              </g>
            </g>
            <g>
              <g>
                <defs>
                  <polygon points="2.16,29.005 82.16,29.005 82.16,30.005 2.16,30.005 2.16,29.005" id="XMLID_1336_"/>
                </defs>
                <use xlink:href="#XMLID_1336_" fill="#818181"/>
                <clipPath id="XMLID_1353_">
                  <use xlink:href="#XMLID_1336_"/>
                </clipPath>
                <g clip-path="url(#XMLID_1353_)">
                  <g>
                    <polygon points="0,0 88,0 88,31 0,31 0,0" fill="none"/>
                    <path d="M44,15.5" fill="none"/>
                  </g>
                  <g>
                    <polygon points="0,0 83,0 83,31 0,31 0,0" fill="#807659"/>
                    <path d="M41.5,15.5" fill="#807659"/>
                  </g>
                  <g>
                    <polygon points="0.365,0 36.809,0 36.809,31 0.365,31 0.365,0" fill="#818181"/>
                    <path d="M18.587,15.5" fill="#818181"/>
                  </g>
                  <g>
                    <g>
                      <defs>
                        <polygon points="0,30 83,30 83,31 0,31 0,30" id="XMLID_1338_"/>
                      </defs>
                      <use xlink:href="#XMLID_1338_" fill="#272727"/>
                      <clipPath id="XMLID_1354_">
                        <use xlink:href="#XMLID_1338_"/>
                      </clipPath>
                      <g clip-path="url(#XMLID_1354_)">
                        <g>
                          <polygon points="0,0 88,0 88,31 0,31 0,0" fill="none"/>
                          <path d="M44,15.5" fill="none"/>
                        </g>
                        <g>
                          <polygon points="0,0 83,0 83,31 0,31 0,0" fill="#272623"/>
                          <path d="M41.5,15.5" fill="#272623"/>
                        </g>
                        <g>
                          <polygon points="0.366,0 36.809,0 36.809,31 0.366,31 0.366,0" fill="#272727"/>
                          <path d="M18.587,15.5" fill="#272727"/>
                        </g>
                      </g>
                    </g>
                  </g>
                  <g>
                    <g>
                      <defs>
                        <polygon points="82,0 83,0 83,31 82,31 82,0" id="XMLID_1340_"/>
                      </defs>
                      <use xlink:href="#XMLID_1340_" fill="#272727"/>
                      <clipPath id="XMLID_1355_">
                        <use xlink:href="#XMLID_1340_"/>
                      </clipPath>
                      <g clip-path="url(#XMLID_1355_)">
                        <g>
                          <polygon points="0,0 88,0 88,31 0,31 0,0" fill="none"/>
                          <path d="M44,15.5" fill="none"/>
                        </g>
                        <g>
                          <polygon points="0,0 83,0 83,31 0,31 0,0" fill="#272623"/>
                          <path d="M41.5,15.5" fill="#272623"/>
                        </g>
                        <g>
                          <g>
                            <defs>
                              <polygon points="0,30 83,30 83,31 0,31 0,30" id="XMLID_1342_"/>
                            </defs>
                            <use xlink:href="#XMLID_1342_" fill="#101010"/>
                            <clipPath id="XMLID_1356_">
                              <use xlink:href="#XMLID_1342_"/>
                            </clipPath>
                            <g clip-path="url(#XMLID_1356_)">
                              <g>
                                <polygon points="0,0 88,0 88,31 0,31 0,0" fill="none"/>
                                <path d="M44,15.5" fill="none"/>
                              </g>
                              <g>
                                <polygon points="0,0 83,0 83,31 0,31 0,0" fill="#101010"/>
                                <path d="M41.5,15.5" fill="#101010"/>
                              </g>
                              <g>
                                <polygon points="0.366,0 36.809,0 36.809,31 0.366,31 0.366,0" fill="#101010"/>
                                <path d="M18.587,15.5" fill="#101010"/>
                              </g>
                            </g>
                          </g>
                        </g>
                      </g>
                    </g>
                  </g>
                </g>
              </g>
            </g>
          </g>
        </g>
      </g>
      <g>
        <polygon points="0,0 83,0 83,1 0,1 0,0" fill="#CCCCCC"/>
        <path d="M41.5,0.5" fill="#CCCCCC"/>
      </g>
      <g>
        <polyline fill-rule="evenodd" stroke="#990000" points="68.273,18.845 74.291,24.348 86.001,12.637" clip-rule="evenodd" stroke-miterlimit="3.8637" stroke-width="4.8117" fill="none"/>
      </g>
      <g>
        <path clip-rule="evenodd" d="M45.772,18.318c-0.345,0.179-0.705,0.314-1.079,0.405    c-0.375,0.091-0.765,0.137-1.172,0.137c-1.214,0-2.176-0.338-2.886-1.016c-0.71-0.68-1.064-1.601-1.064-2.764    c0-1.165,0.354-2.086,1.064-2.764c0.709-0.68,1.671-1.02,2.886-1.021c0.407,0,0.797,0.046,1.172,0.137    c0.374,0.091,0.734,0.227,1.079,0.405v1.509c-0.349-0.237-0.692-0.412-1.03-0.522c-0.339-0.11-0.695-0.166-1.069-0.166    c-0.671,0-1.198,0.215-1.582,0.645c-0.384,0.43-0.576,1.022-0.576,1.777c0,0.752,0.192,1.343,0.576,1.772    c0.384,0.43,0.911,0.645,1.582,0.645c0.374,0,0.73-0.055,1.069-0.166c0.338-0.11,0.682-0.285,1.03-0.522V18.318z" fill-rule="evenodd"/>
        <path clip-rule="evenodd" d="M52.502,11.658v1.543c-0.4-0.179-0.791-0.314-1.171-0.405    c-0.381-0.091-0.741-0.136-1.079-0.137c-0.45,0-0.781,0.062-0.996,0.186c-0.215,0.124-0.322,0.316-0.322,0.576    c0,0.195,0.071,0.349,0.214,0.459c0.146,0.107,0.411,0.2,0.792,0.278l0.8,0.161c0.811,0.163,1.387,0.41,1.729,0.742    c0.342,0.332,0.513,0.804,0.513,1.416c0,0.804-0.239,1.403-0.717,1.797c-0.476,0.391-1.203,0.586-2.183,0.586    c-0.462,0-0.926-0.044-1.392-0.132c-0.466-0.088-0.931-0.218-1.396-0.391v-1.587c0.465,0.248,0.915,0.435,1.347,0.562    c0.437,0.124,0.856,0.186,1.26,0.186c0.41,0,0.724-0.068,0.942-0.205c0.218-0.137,0.327-0.332,0.327-0.586    c0-0.228-0.075-0.403-0.225-0.527c-0.146-0.124-0.441-0.234-0.884-0.332l-0.727-0.161c-0.729-0.156-1.263-0.405-1.602-0.747    c-0.335-0.342-0.502-0.802-0.502-1.382c0-0.726,0.234-1.284,0.703-1.675c0.469-0.391,1.143-0.586,2.022-0.586    c0.4,0,0.812,0.031,1.235,0.093C51.612,11.448,52.05,11.538,52.502,11.658z" fill-rule="evenodd"/>
        <path clip-rule="evenodd" d="M59.805,11.658v1.543c-0.4-0.179-0.791-0.314-1.172-0.405    c-0.381-0.091-0.741-0.136-1.079-0.137c-0.449,0-0.781,0.062-0.996,0.186c-0.215,0.124-0.322,0.316-0.322,0.576    c0,0.195,0.072,0.349,0.215,0.459c0.146,0.107,0.41,0.2,0.791,0.278l0.801,0.161c0.811,0.163,1.387,0.41,1.729,0.742    s0.513,0.804,0.513,1.416c0,0.804-0.239,1.403-0.718,1.797c-0.475,0.391-1.203,0.586-2.183,0.586    c-0.462,0-0.926-0.044-1.392-0.132s-0.931-0.218-1.396-0.391v-1.587c0.465,0.248,0.915,0.435,1.348,0.562    c0.436,0.124,0.856,0.186,1.26,0.186c0.41,0,0.724-0.068,0.942-0.205s0.327-0.332,0.327-0.586c0-0.228-0.075-0.403-0.225-0.527    c-0.146-0.124-0.441-0.234-0.884-0.332l-0.728-0.161c-0.729-0.156-1.263-0.405-1.602-0.747c-0.335-0.342-0.503-0.802-0.503-1.382    c0-0.726,0.234-1.284,0.703-1.675s1.143-0.586,2.021-0.586c0.4,0,0.812,0.031,1.235,0.093    C58.915,11.448,59.352,11.538,59.805,11.658z" fill-rule="evenodd"/>
      </g>
      <g>
        <g>
          <path d="M33.077,7.038l0.334,2.034l-1.185,2.266c0,0-0.455-0.961-1.21-1.494c-0.636-0.448-1.051-0.545-1.699-0.412     c-0.833,0.171-1.777,1.167-2.189,2.395c-0.493,1.469-0.498,2.179-0.515,2.832c-0.028,1.047,0.137,1.665,0.137,1.665     s-0.719-1.33-0.712-3.278c0.005-1.391,0.223-2.652,0.867-3.896c0.566-1.095,1.407-1.751,2.154-1.829     c0.772-0.08,1.383,0.292,1.854,0.695c0.495,0.423,0.996,1.348,0.996,1.348L33.077,7.038z"/>
          <path d="M33.222,18.547c0,0-0.523,0.936-0.85,1.296s-0.91,0.996-1.63,1.313c-0.721,0.317-1.099,0.377-1.811,0.309     c-0.712-0.068-1.373-0.48-1.605-0.652c-0.231-0.171-0.824-0.678-1.159-1.15s-0.858-1.416-0.858-1.416s0.292,0.946,0.474,1.347     c0.105,0.231,0.428,0.938,0.886,1.554c0.427,0.574,1.257,1.562,2.519,1.785s2.128-0.343,2.343-0.48     c0.214-0.137,0.667-0.516,0.953-0.822c0.299-0.32,0.582-0.728,0.738-0.972c0.114-0.179,0.301-0.541,0.301-0.541L33.222,18.547z"/>
        </g>
        <g>
          <path d="M11.437,7.127l2.852,9.698l2.852-9.698h2.065l-4.721,15.933h-0.197l-2.95-9.875l-2.951,9.875H8.191     L3.47,7.127h2.065l2.853,9.698l1.928-6.531L9.372,7.127H11.437z" fill="#005A9C"/>
          <path d="M25.072,17.946c0,1.443-0.384,2.656-1.151,3.639c-0.767,0.983-1.761,1.475-2.98,1.475     c-0.918,0-1.718-0.292-2.4-0.875c-0.682-0.583-1.187-1.374-1.515-2.371l1.613-0.668c0.236,0.603,0.548,1.079,0.935,1.426     c0.387,0.348,0.843,0.521,1.367,0.521c0.551,0,1.016-0.308,1.397-0.924s0.571-1.357,0.571-2.223c0-0.958-0.203-1.698-0.61-2.223     c-0.473-0.616-1.214-0.925-2.223-0.925h-0.787v-0.944l2.754-4.761h-3.325l-0.925,1.574h-0.59V7.127h7.672v0.964l-2.911,5.016     c1.023,0.328,1.797,0.925,2.321,1.791C24.809,15.763,25.072,16.779,25.072,17.946z" fill="#005A9C"/>
        </g>
      </g>
    </g>
    <g id="Calque_1">
    </g>
    <g id="Layer_1">
    </g>
  </g>
</svg>